<?xml version="1.0" encoding="UTF-8"?>
<svg id="Layer_2" data-name="Layer 2" xmlns="http://www.w3.org/2000/svg" viewBox="0 0 598.66 342.81">
  <defs>
    <style>
      .cls-1 {
        fill: #000;
        stroke-width: 0px;
      }
    </style>
  </defs>
  <g id="Layer_1-2" data-name="Layer 1">
    <g>
      <path class="cls-1" d="M348.69,256.51c11.89,0,23.24,0,34.59,0,1.37,0,2.76-.05,4.12.09,4.01.41,5.69,2.3,5.69,6.39,0,5.25-.07,10.49-.07,15.74,0,8.76-.66,9.58-9.43,11.02-1.83,14.43-3.67,28.99-5.6,44.17,3.71,0,7.12-.04,10.54.01,2.23.04,4.65-.27,6.63.5,1.37.53,2.98,2.65,2.93,4-.06,1.39-1.81,2.98-3.19,3.94-.87.61-2.42.28-3.67.28-38.1.04-76.2.07-114.3.1-.5,0-1,.02-1.5-.02-2.93-.21-4.26-2.13-4.29-4.73-.03-2.46,1.53-3.83,4.11-3.86,9.62-.09,19.23-.21,28.85-.3,1.98-.02,3.96,0,6.5,0-1.98-15.03-3.9-29.55-5.84-44.22-1.08-.12-1.91-.23-2.74-.3-4.01-.34-6.31-2.42-6.41-6.37-.17-6.99-.18-13.99-.08-20.98.05-3.89,2.08-5.46,6.9-5.47,10.74-.04,21.49.02,32.23.03,1.6,0,3.19,0,5.05,0,.08-1.54.2-2.75.2-3.96.04-18.11.06-36.22.08-54.34,0-.62-.04-1.25.01-1.87.23-2.65,1.23-4.63,4.32-4.53,2.92.09,4.29,1.86,4.34,4.59.09,5.12.04,10.24.04,15.36,0,14.72,0,29.44,0,44.72Z"/>
      <path class="cls-1" d="M331.25,157.33c-2.48,0-4.72.16-6.93-.08-.91-.1-1.85-.94-2.56-1.66-1.97-2.02-3.55-4.5-5.76-6.18-18.56-14.13-25.73-36.09-18.85-58.39,6.05-19.64,24.3-33.32,44.91-33.65,21.98-.35,38.28,9.19,47.26,29.19,7.51,16.71,6.04,33.55-4.35,48.85-3.64,5.36-9.02,9.52-13.53,14.31-1.75,1.85-3.39,3.83-4.87,5.9-2.2,3.07-5.26,1.34-7.9,1.37-.63,0-1.73-2.29-1.85-3.6-.49-5.43,1.51-9.31,6.52-12.3,13.82-8.27,20.52-24.59,17.59-41.53-1.97-11.36-11.72-26.37-29.32-29.57-24.32-4.42-48.27,12.54-44.55,42.98,1.43,11.68,7.09,21.16,17.21,27.23,6.73,4.04,8.08,9.56,6.96,17.11Z"/>
      <path class="cls-1" d="M335.28,229.75c-8.04-7.99-16.09-15.98-24.13-23.98-.88-.88-1.68-1.85-2.59-2.7-1.78-1.66-3.78-2.84-5.84-.62-1.98,2.13-.98,4.1.84,5.85,4.05,3.88,8.11,7.76,12.11,11.69,5.87,5.78,11.73,11.57,17.48,17.46.9.92,1.97,2.97,1.57,3.58-.76,1.15-2.5,2.23-3.88,2.29-16.17.69-30.3-3.93-41.22-16.45-8.79-10.07-12.83-22.1-14.28-35.15-.34-3.1-.5-6.22-.66-9.34-.11-2.16.81-3.84,3.14-3.8,13.88.23,27.77.26,40.09,8.3,11.36,7.42,17.75,17.62,18.26,31.28.14,3.69.02,7.39.02,11.08-.31.17-.62.33-.93.5Z"/>
      <path class="cls-1" d="M352.31,229.68c-.5-10.8-.21-21.42,6.09-30.93,7.48-11.29,18.31-17.05,31.4-18.79,6.42-.85,12.93-.96,19.39-1.44,2.96-.22,4.36.92,4.37,4.06.06,15.31-3.95,29.48-12.82,41.9-7.71,10.79-18.86,16.45-31.9,18.31-3.45.49-6.98.74-10.45.54-1.61-.09-3.16-1.5-4.73-2.3.73-1.34,1.19-2.94,2.22-3.99,7.95-8.11,15.99-16.13,24.03-24.15,1.5-1.49,3.1-2.89,4.7-4.28,1.85-1.61,3.26-3.4,1.3-5.72-2.02-2.4-4.17-1.68-6.1.27-6.59,6.64-13.2,13.27-19.74,19.96-2.33,2.38-4.52,4.92-6.77,7.38l-1.01-.81Z"/>
      <path class="cls-1" d="M344.31,125.51c2.07-2.69,4.6-6.34,7.55-9.6.95-1.04,3.03-1.05,4.6-1.53.39,1.74,1.48,3.69,1.03,5.18-.92,3.03-2.66,5.82-3.93,8.43,2.55-.87,5.45-2.13,8.48-2.76,1.28-.26,3.56.43,4.08,1.4.52.96-.22,3.08-1.05,4.21-3.01,4.07-6.63,5.69-16.53,7.95v18.34h-8.3v-17.86c-4.2-1.43-7.99-2.3-11.35-4-2.34-1.18-4.43-3.26-6.02-5.39-1.9-2.54-.65-4.88,2.5-4.66,3.13.22,6.2,1.29,9.32,1.99-.27-.44-.85-1.25-1.29-2.13-.89-1.77-2.13-3.52-2.41-5.39-.24-1.64.63-3.44,1.01-5.17,1.57.5,3.63.53,4.62,1.58,2.91,3.08,5.4,6.57,7.68,9.43Z"/>
      <path class="cls-1" d="M261.07,99.61c4.5,0,9-.07,13.49.02,3.9.08,6.01,1.95,6.08,5.15.07,3.4-2.15,5.72-5.95,5.78-9,.13-17.99.17-26.99.12-4-.02-6.29-2.37-6.18-5.94.11-3.3,2.11-5.05,6.05-5.11,4.5-.06,9-.01,13.5-.02Z"/>
      <path class="cls-1" d="M309.02,49.11c-.85-.62-2.73-1.4-3.67-2.8-4.88-7.24-9.58-14.59-14.2-22-1.56-2.49-1.38-5.02,1.17-6.98,2.43-1.88,6.17-1.87,8.18.39,1.8,2.04,3.25,4.41,4.73,6.71,3.37,5.25,6.82,10.45,9.93,15.85,2.24,3.9-.79,8.77-6.12,8.83Z"/>
      <path class="cls-1" d="M427.34,99.62c4.37,0,8.74-.04,13.11,0,3.82.04,6.38,2.2,6.47,5.31.08,2.9-2.36,5.48-5.88,5.55-9.23.17-18.47.21-27.7.07-3.39-.05-5.25-2.34-5.26-5.6-.02-3.29,1.76-5.18,5.42-5.29,4.61-.14,9.23-.03,13.85-.04Z"/>
      <path class="cls-1" d="M259.97,157.95c-1.5-1.45-3.47-2.65-4.38-4.41-1.29-2.49-.85-5.19,1.78-6.91,4.38-2.86,8.81-5.65,13.23-8.44,2.63-1.66,5.25-3.36,7.98-4.86,3.43-1.89,6.79-1.18,8.59,1.58,1.85,2.85,1.03,5.79-2.58,8.19-6.33,4.2-12.73,8.29-19.16,12.34-1.44.91-3.12,1.44-5.45,2.5Z"/>
      <path class="cls-1" d="M433.33,58.62c-.86.99-2.04,3.15-3.85,4.33-6.49,4.21-13.13,8.18-19.83,12.05-4.75,2.74-9.42.82-9.32-3.96.04-1.98,1.54-4.63,3.21-5.77,6.59-4.5,13.44-8.63,20.33-12.66,4.57-2.68,9.46-.08,9.47,6.02Z"/>
      <path class="cls-1" d="M406.24,132.02c.86.38,2.42.86,3.78,1.68,6.53,3.93,13.03,7.89,19.48,11.95,4.02,2.53,5.07,5.71,3.15,8.72-2.08,3.25-5.57,3.78-9.49,1.33-6.35-3.97-12.78-7.84-18.94-12.1-1.77-1.22-3.35-3.44-3.91-5.5-.79-2.93,2.22-5.99,5.93-6.08Z"/>
      <path class="cls-1" d="M379.27,49.25c-5.27-.13-8.16-5.37-5.92-9.17,4.43-7.51,9.21-14.82,14.1-22.03,1.81-2.66,5.8-2.65,8.34-.52,2.61,2.18,2.86,4.6.95,7.53-4.01,6.15-7.81,12.44-11.99,18.47-1.67,2.41-4.09,4.29-5.48,5.72Z"/>
      <path class="cls-1" d="M259.93,50.8c2.1.94,3.52,1.4,4.76,2.16,6.59,4.03,13.15,8.09,19.67,12.23,3.72,2.36,4.64,5.41,2.78,8.47-1.79,2.94-5.17,3.62-8.84,1.44-6.64-3.94-13.19-8.03-19.73-12.14-2.95-1.85-4.53-4.66-3.11-7.94.76-1.74,2.95-2.86,4.46-4.23Z"/>
      <path class="cls-1" d="M349.59,19.64c0,4.5.06,9-.02,13.5-.07,3.92-2.15,6.31-5.36,6.39-3.16.08-5.17-2.24-5.21-6.42-.08-9.25-.06-18.49,0-27.74.03-3.58,1.95-5.42,5.29-5.37,3.23.05,5.34,2.05,5.4,5.4.09,4.75.02,9.5.02,14.24-.04,0-.09,0-.13,0Z"/>
      <path class="cls-1" d="M344.88,162.45c5.49,0,10.99,0,16.48,0,2.42,0,4.76.41,4.88,3.38.11,2.96-1.86,4.85-4.63,4.88-11.61.14-23.22.09-34.83-.06-2.55-.03-4.22-1.75-4.15-4.39.06-2.58,1.87-3.7,4.28-3.73,5.99-.06,11.98-.02,17.98-.02,0-.02,0-.04,0-.06Z"/>
      <path class="cls-1" d="M344.67,177.02c4.86,0,9.74-.2,14.58.11,1.57.1,3.05,1.53,4.58,2.35-.87,1.53-1.43,3.45-2.7,4.47-1.23.99-3.2,1.43-4.86,1.47-7.98.17-15.96.19-23.94.09-1.54-.02-3.5-.39-4.49-1.38-1.22-1.22-2.13-3.24-2.15-4.93,0-.71,2.57-2,4.02-2.08,4.98-.26,9.97-.1,14.96-.1Z"/>
      <path class="cls-1" d="M372.21,98.89c-.8.72-2.09,2.59-3.85,3.32-2.3.96-3.98-.6-4.86-2.85-2.43-6.23-6.81-10.58-12.8-13.42-2.16-1.02-3.86-2.38-3.01-5.19.81-2.65,2.78-3.21,5.26-3.09,7.9.37,19.4,12.18,19.26,21.23Z"/>
      <path class="cls-1" d="M415.59,338.53c-.28,2.77-1.87,4.3-4.61,4.29-2.67,0-4.21-1.73-4.23-4.24-.02-2.64,1.42-4.62,4.31-4.54,2.67.08,4.32,1.64,4.54,4.49Z"/>
    </g>
    <path class="cls-1" d="M127.12,102.85c0,37.87-27.51,61.74-60.64,61.74C29.41,164.59,0,135.02,0,98.89S29.57,32.88,65.77,32.88c16.05.08,34.39,7.83,46.41,19.53l-11.15,16.6c-9.96-9.8-23.4-15.97-35.5-15.97-23.24,0-45.22,19.45-45.22,45.85,0,24.98,19.84,45.54,47.04,45.54,21.9,0,38.34-13.36,38.34-32.81v-.4h-39.45v-18.34h60.32c.32,2.93.55,6.4.55,9.96Z"/>
    <path class="cls-1" d="M215.58,162.45l-34.31-49.33h-15.65v49.33h-20l-.08-127.44h39.61c23.72,0,43.17,18.26,43.17,40.95,0,16.44-10.59,30.75-25.22,35.5l37.08,50.99h-24.59ZM185.62,96.52c12.02.08,22.06-9.64,22.06-21.03s-10.2-20.63-22.06-20.63h-20.08v41.66h20.08Z"/>
    <path class="cls-1" d="M449.16,35.02h21.58l23.64,78.66,29.17-73.28h.79l29.17,73.21,23.56-78.58h21.58l-40.48,128.62h-1.82l-32.65-76.84-32.18,76.84h-1.82l-40.56-128.62Z"/>
  </g>
</svg>